<svg xmlns="http://www.w3.org/2000/svg" viewBox="0 0 16 16" id="Evernote"><path fill="#d8a353" d="M14.632 2.784c-.12-.639-.503-.954-.849-1.077-.374-.134-1.131-.273-2.082-.384-.765-.09-1.665-.082-2.209-.066-.065-.443-.379-.848-.729-.988-.934-.373-2.378-.283-2.748-.18-.294.082-.62.249-.802.507-.122.172-.2.393-.201.701 0 .174.005.585.009.95l.009.696a.596.596 0 0 1-.597.592H2.918c-.323 0-.57.054-.758.139-.189.085-.323.2-.424.335-.202.269-.237.602-.237.941 0 0 .003.277.07.813.056.415.51 3.314.941 4.196.167.343.278.486.607.637.732.311 2.403.656 3.186.755.782.099 1.273.308 1.565-.3.003-.001.06-.151.14-.371a5.98 5.98 0 0 0 .289-1.93c0-.05.074-.052.074 0 0 .346-.066 1.57.866 1.898.368.129 1.132.245 1.907.335.701.08 1.21.354 1.21 2.138 0 1.086-.23 1.235-1.432 1.235-.975 0-1.346.025-1.346-.743 0-.62.619-.555 1.078-.555.205 0 .056-.151.056-.534 0-.381.24-.601.013-.607-1.586-.043-2.519-.002-2.519 1.965C8.203 15.669 8.892 16 11.143 16c1.765 0 2.387-.057 3.116-2.3.144-.443.493-1.794.704-4.061.134-1.435-.126-5.763-.331-6.855zm-3.077 4.784a3.228 3.228 0 0 0-.623.037c.055-.44.238-.981.888-.959.72.025.82.699.823 1.156a2.975 2.975 0 0 0-1.088-.234zM2.848 3.099h1.515c.087 0 .157-.07.157-.155 0 0-.018-1.288-.018-1.645v-.004c0-.294.062-.55.171-.765l.052-.096a.032.032 0 0 0-.017.009L1.766 3.336a.036.036 0 0 0-.011.017l.156-.076c.255-.116.565-.178.937-.178z" class="color4caf50 svgShape"></path></svg>